# xmcd CD database file
#
# Track frame offsets:
#	150
#	12814
#	23871
#	37158
#	50209
#	59481
#	72271
#	87000
#	100284
#	114283
#	126355
#	140970
#	154470
#	166788
#	180171
#	195677
#	210211
#	220127
#	237010
#	250374
#	263515
#	274999
#	289537
#	302044
#	316537
#
# Disc length: 4402 seconds
#
# Revision: 0
# Processed by: cddbd v1.5PL3 Copyright (c) Steve Scherf et al.
# Submitted via: CDex 1.51
#
DISCID=63113019
DTITLE=Red Foley - Chattanoogie Shoeshine Boy
DYEAR=2002
DGENRE=Country
TTITLE0=Chattanoogie Shoeshine Boy
TTITLE1=Sugarfoot Rag
TTITLE2=Smoke On The Water
TTITLE3=Hang Your Head In Shame
TTITLE4=Shame, Shame On You
TTITLE5=Harriet
TTITLE6=Old Shep
TTITLE7=Have I Told You Lately That I Love You?
TTITLE8=New Jolie Blonde (New Pretty Blonde)
TTITLE9=Tennessee Saturday Night
TTITLE10=Never Trust A Woman
TTITLE11=Blues In My Heart
TTITLE12=Tennessee Border
TTITLE13=Candy Kisses
TTITLE14=Tennessee Polka
TTITLE15=Sunday Down In Tennessee
TTITLE16=Don't Be Ashamed Of Your Age (duet with Ernest Tubb)
TTITLE17=Steal Away
TTITLE18=Birmingham Bounce
TTITLE19=Just A Closer Walk With Thee
TTITLE20=M-I-S-S-I-S-S-I-P-P-I
TTITLE21=Midnight
TTITLE22=Alabama Jubilee
TTITLE23=Peace In The Valley
TTITLE24=Goodnight, Irene (duet with Ernest Tubb)
EXTD=YEAR: 2002
EXTT0=
EXTT1=
EXTT2=
EXTT3=
EXTT4=
EXTT5=
EXTT6=
EXTT7=
EXTT8=
EXTT9=
EXTT10=
EXTT11=
EXTT12=
EXTT13=
EXTT14=
EXTT15=
EXTT16=
EXTT17=
EXTT18=
EXTT19=
EXTT20=
EXTT21=
EXTT22=
EXTT23=
EXTT24=
PLAYORDER=
